<svg xmlns="http://www.w3.org/2000/svg" width="903.527" height="331.151" viewBox="0 0 903.527 331.151">
  <g id="Group_8" data-name="Group 8" transform="translate(-2681.772 530.639)">
    <g id="Group_7" data-name="Group 7" transform="translate(2681.772 -530.639)">
      <g id="Group_6" data-name="Group 6" transform="translate(0 0)">
        <path id="Path_34" data-name="Path 34" d="M238.135,458.505,220.756,416.15l-17.286,42.355m417.585-16.866c-3.49,2.118-7.617,2.189-12.562,2.189H577.643v-23.6h31.27c4.422,0,9.043.2,12.04,1.916,3.3,1.548,5.332,4.842,5.332,9.393C626.285,436.182,624.347,439.919,621.056,441.639Zm220.082,16.866L823.564,416.15l-17.475,42.355ZM430.888,504.35H404.854l-.1-83.211L367.931,504.35h-22.3l-36.917-83.284V504.35H257.064l-9.758-23.7H194.431l-9.857,23.7H156.988l45.48-106.245H240.2L283.39,498.7V398.105h41.445L358.07,470.18,388.6,398.105h42.281V504.35Zm103.762,0H449.811V398.105H534.65V420.23H475.211V439.38h58.01v21.778h-58.01v21.218H534.65Zm119.612-77.631c0,16.94-11.3,25.691-17.895,28.319,5.557,2.115,10.306,5.852,12.565,8.947,3.583,5.284,4.2,10,4.2,19.494V504.35H627.519l-.1-13.4c0-6.393.612-15.587-4.009-20.7-3.708-3.737-9.367-4.547-18.506-4.547H577.646V504.35h-25.4V398.105h58.41c12.979,0,22.544.343,30.751,5.089C649.445,407.94,654.262,414.868,654.262,426.719Zm40.644,77.631H668.993V398.105h25.912Zm300.614,0H959.535L911.4,424.607V504.35H859.68l-9.883-23.7H797.042l-9.591,23.7H757.735c-12.344,0-27.97-2.73-36.821-11.751-8.925-9.021-13.571-21.24-13.571-40.561,0-15.757,2.778-30.162,13.693-41.544,8.207-8.479,21.064-12.389,38.564-12.389h24.589v22.766H760.116c-9.264,0-14.5,1.378-19.538,6.294-4.333,4.474-7.3,12.931-7.3,24.067,0,11.383,2.263,19.59,6.986,24.951,3.91,4.2,11.011,5.48,17.7,5.48h11.405l35.8-83.553h38.051l43,100.493V398.108h38.663l44.64,73.994V398.108h26.012V504.35ZM156.693,525.219h43.39l9.784-23.6h21.9l9.758,23.6h85.377V507.177l7.621,18.119h44.32l7.621-18.388v18.311h212.17l-.1-38.737h4.108c2.871.1,3.714.365,3.714,5.111v33.626H716.091V516.2c8.851,4.743,22.618,9.018,40.734,9.018h46.162l9.88-23.6h21.9l9.665,23.6h88.96V502.8l13.475,22.416h71.29V377.038H947.6v17.5l-9.88-17.5h-72.4v17.5l-9.072-17.5H758.472c-16.372,0-30.758,2.285-42.381,8.652v-8.652H648.605v8.652c-7.393-6.563-17.475-8.652-28.681-8.652H373.385l-16.542,38.273-16.984-38.273H262.2v17.5l-8.531-17.5H187.445L156.69,447.491v77.728Z" transform="translate(-156.69 -377.038)" fill="#2b6cc3"/>
        <path id="Path_35" data-name="Path 35" d="M936.607,477.835H890.32c-4.618,0-7.688.173-10.277,1.92-2.679,1.721-3.711,4.275-3.711,7.646a8.019,8.019,0,0,0,5.554,7.915c2.679.933,5.56,1.2,9.787,1.2l13.764.372c13.889.343,23.163,2.727,28.813,8.556a13.675,13.675,0,0,1,2.359,2.628m0,39.827c-6.169,9.018-18.189,13.591-34.462,13.591H853.1V538.706h48.845c4.845,0,8.239-.641,10.277-2.637a9.333,9.333,0,0,0,3.006-6.928,8.728,8.728,0,0,0-3.105-7.028c-1.839-1.621-4.522-2.362-8.947-2.362-23.842-.8-53.594.74-53.594-32.889,0-15.417,9.787-31.639,36.44-31.639H936.6V434.079h-47c-14.184,0-24.49,3.4-31.783,8.678v-8.678H788.3c-11.114,0-24.166,2.753-30.335,8.678v-8.678H633.824v8.678c-9.88-7.127-26.55-8.678-34.241-8.678H517.7v8.678c-7.816-7.569-25.2-8.678-35.8-8.678H390.262l-20.971,22.7-19.638-22.7H212.759V582.362H347.077l21.605-23.054,20.359,23.054,82.791.074V547.554h8.143c10.982.17,23.938-.276,35.372-5.214v40.022h68.287V543.712h3.294c4.2,0,4.621.176,4.621,4.374v34.27H799c13.174,0,26.938-3.371,34.562-9.489v9.489h65.806c13.69,0,27.066-1.92,37.241-6.835V547.9ZM835.3,505.445c4.945,5.111,7.595,11.575,7.595,22.512,0,22.862-14.283,33.533-39.894,33.533h-49.46V538.706h49.264c4.816,0,8.229-.641,10.37-2.637a9.413,9.413,0,0,0,3-6.928,9.113,9.113,0,0,0-3.1-7.028c-1.945-1.621-4.624-2.362-9.043-2.362-23.752-.8-53.494.74-53.494-32.889,0-15.417,9.688-31.639,36.308-31.639h50.915v22.618H791.183c-4.621,0-7.621.173-10.178,1.92-2.778,1.721-3.81,4.275-3.81,7.646a8.139,8.139,0,0,0,5.557,7.915c2.679.932,5.553,1.2,9.883,1.2l13.671.372C820.088,497.232,829.551,499.616,835.3,505.445Zm-229.151-6.566c-3.4,2.016-7.6,2.189-12.543,2.189H562.759V477.2h31.27c4.522,0,9.05.1,12.123,1.92,3.291,1.721,5.255,5.012,5.255,9.556S609.443,496.889,606.152,498.879ZM621.489,512.1c5.65,2.086,10.274,5.826,12.437,8.922,3.589,5.188,4.108,10.03,4.208,19.4v21.064H612.642v-13.3c0-6.39.612-15.859-4.105-20.8-3.714-3.807-9.367-4.717-18.635-4.717h-27.14v38.814H537.247V455.22h58.628c12.857,0,22.221.567,30.559,5.015,8.015,4.842,13.055,11.473,13.055,23.6C639.487,500.792,628.174,509.451,621.489,512.1Zm32.078-56.885h84.762V477.2H678.858v19.32h58.016V518.2H678.858v21.144l59.471.1v22.051H653.568ZM482.23,504.26H449.409V477.2h33.113c9.172,0,15.533,3.737,15.533,13.03C498.055,499.424,491.988,504.26,482.23,504.26Zm-58.112,47.563-38.99-43.288,38.99-41.91ZM323.427,539.344H260.988V518.2h55.75V496.517h-55.75V477.2h63.669l27.777,30.969Zm201.9-49.114c0,29.521-22.025,35.616-44.227,35.616H449.409v35.645h-49.36l-31.27-35.18-32.495,35.18h-100.6V455.22h102.14l31.245,34.834,32.3-34.834h81.147C502.676,455.22,525.323,460.8,525.323,490.23Z" transform="translate(-33.08 -251.285)" fill="#2b6cc3"/>
      </g>
    </g>
  </g>
</svg>
