<svg xmlns="http://www.w3.org/2000/svg" width="612.085" height="378.316" viewBox="0 0 612.085 378.316">
  <g id="Group_4" data-name="Group 4" transform="translate(-17.915 -18)">
    <rect id="Rectangle_10" data-name="Rectangle 10" width="165.51" height="297.427" transform="translate(241.206 58.444)" fill="#ff5f00"/>
    <path id="Path_26" data-name="Path 26" d="M571.512,459.157a188.827,188.827,0,0,1,72.246-148.713,189.155,189.155,0,1,0,0,297.427,188.829,188.829,0,0,1-72.246-148.714Z" transform="translate(-319.796 -252)" fill="#eb001b"/>
    <path id="Path_27" data-name="Path 27" d="M702,459.156A189.148,189.148,0,0,1,395.958,607.87a189.182,189.182,0,0,0,0-297.427A189.148,189.148,0,0,1,702,459.156Z" transform="translate(-71.996 -251.999)" fill="#f79e1b"/>
    <path id="Path_28" data-name="Path 28" d="M453.844,334.252v-6.089H456.3v-1.241h-6.253v1.241H452.5v6.089Zm12.14,0V326.91h-1.917l-2.2,5.05-2.205-5.05h-1.918v7.342h1.354v-5.538l2.068,4.775h1.4l2.068-4.787v5.55Z" transform="translate(158.11 -9.884)" fill="#f79e1b"/>
  </g>
</svg>
