<svg id="Group_5" data-name="Group 5" xmlns="http://www.w3.org/2000/svg" width="837.416" height="255.632" viewBox="0 0 837.416 255.632">
  <path id="Path_20" data-name="Path 20" d="M37.1,273.786,79.705,25.5h67.581L104.681,273.786Z" transform="translate(258.199 -22.562)" fill="#1739c3"/>
  <path id="Path_21" data-name="Path 21" d="M247.343,35.584A186.43,186.43,0,0,0,187.108,25.3c-67.581,0-114.594,33.79-114.594,82.272,0,35.26,33.79,55.828,58.766,67.581,26.445,11.753,35.26,20.568,35.26,30.852,0,16.161-20.568,24.976-41.136,24.976-26.445,0-41.136-4.407-63.173-13.222l-8.815-5.877L44.6,267.71c16.161,7.346,45.544,13.222,74.927,13.222,70.519,0,117.532-33.79,117.532-85.211,0-27.914-17.63-49.951-57.3-67.581-23.506-11.753-38.2-19.1-38.2-30.852,0-10.284,11.753-22.037,38.2-22.037a138.47,138.47,0,0,1,49.951,8.815L235.589,87l11.753-51.42" transform="translate(360.885 -25.3)" fill="#1739c3"/>
  <path id="Path_22" data-name="Path 22" d="M245.451,25.6H192.562c-16.161,0-27.914,4.407-35.26,20.568L57.4,273.886h70.519s11.753-30.852,14.691-36.729h86.68c1.469,8.815,8.815,36.729,8.815,36.729h63.173L245.451,25.6M161.71,184.268c5.877-14.691,26.445-69.05,26.445-69.05s5.877-14.692,8.815-23.506l4.408,22.037s13.222,58.766,16.161,71.988H161.71Z" transform="translate(536.137 -21.193)" fill="#1739c3"/>
  <path id="Path_23" data-name="Path 23" d="M189.283,26.969,123.171,195.921l-7.346-33.79C104.072,122.464,64.405,79.859,21.8,57.821L83.5,273.786h71.988L262.741,25.5H189.283" transform="translate(48.719 -22.562)" fill="#1739c3"/>
  <path id="Path_24" data-name="Path 24" d="M127.186,25.5H18.469L17,31.377C102.211,51.945,158.038,101.9,181.545,160.662L158.038,47.537C155.1,31.377,141.878,26.969,127.186,25.5" transform="translate(-17 -22.562)" fill="#1739c3"/>
</svg>
