<svg xmlns="http://www.w3.org/2000/svg" width="763.538" height="329.706" viewBox="0 0 763.538 329.706">
  <g id="zelle-logo" transform="translate(0.02 0)">
    <path id="Path_29" data-name="Path 29" d="M342.017,462.875a77.123,77.123,0,0,1-9.185-29.33,5.633,5.633,0,0,0-2.3-3.888,5.694,5.694,0,0,0-3.337-1.071,7,7,0,0,0-1.1,0,32.5,32.5,0,0,1-6.123.643c-6.552,0-11.573-1.1-11.573-14.941V401.031h0V214.884a5.174,5.174,0,0,0-5.174-5.174H265.354a5.174,5.174,0,0,0-5.174,5.174v203.9c0,15.308,1.408,26.789,8.419,37.107,8.573,11.787,25.656,18.645,41.363,18.645h2.449a82.97,82.97,0,0,0,26.514-3.521,5.694,5.694,0,0,0,3.062-8.174" transform="translate(134.321 -186.595)" fill="#5f469c"/>
    <path id="Path_30" data-name="Path 30" d="M378.357,456.344c-6.919-10.1-9.185-11.848-13.777-22.778a8.358,8.358,0,0,0-2.3-3.888,5.572,5.572,0,0,0-3.337-1.071,5.421,5.421,0,0,0-1.072,0,33.674,33.674,0,0,1-6.123.612c-6.552,0-11.573-1.1-11.573-14.941V401.021h0V214.874A5.174,5.174,0,0,0,335,209.7h-37.75a5.174,5.174,0,0,0-5.174,5.174V418.809c0,15.308,1.408,26.82,8.419,37.107,8.573,11.818,25.656,18.645,41.363,18.645h2.48a82.878,82.878,0,0,0,26.514-3.521,39.278,39.278,0,0,0,8.481-4.654c3.7-3.766,0-8.664-.949-10.073" transform="translate(200.086 -186.615)" fill="#5f469c"/>
    <path id="Path_31" data-name="Path 31" d="M243.6,307.551c3.949-21.431,20.574-35.147,43.72-35.147s39.219,13.012,43.322,35.147Zm43.383-75.928c-28.565,0-52.813,10.042-70.142,29.055-16.349,17.911-25.32,43.077-25.32,70.876s8.909,52.415,25.779,69.989c17.727,18.37,43.108,28.228,73.479,28.228,32.759,0,60.283-11.481,81.745-34.106a5.021,5.021,0,0,0-.184-7.317,106.388,106.388,0,0,1-24.493-23.605,5.878,5.878,0,0,0-3.582-1.439h-.153a5.144,5.144,0,0,0-3.643,1.653c-12.889,13.9-29.422,19.533-48.527,19.533-28.259,0-45.679-13.349-48.986-39.25h131.16a5.174,5.174,0,0,0,5.143-4.592,125.245,125.245,0,0,0,.7-13.563c0-26.82-8.818-50.976-24.8-68.06-16.778-17.941-40.291-27.555-67.937-27.555" transform="translate(-7.23 -141.734)" fill="#5f469c"/>
    <path id="Path_32" data-name="Path 32" d="M371.309,307.551C375.228,286.12,391.883,272.4,415,272.4s39.219,13.012,43.322,35.147Zm43.353-75.928c-28.565,0-52.813,10.042-70.142,29.055-16.349,17.911-25.35,43.077-25.35,70.876s8.909,52.415,25.779,69.989c17.727,18.37,43.108,28.228,73.479,28.228,32.759,0,60.283-11.481,81.745-34.106a5.021,5.021,0,0,0-.184-7.317,106.7,106.7,0,0,1-24.493-23.6,5.878,5.878,0,0,0-3.582-1.439h-.184a5.143,5.143,0,0,0-3.643,1.653c-12.889,13.9-29.422,19.533-48.527,19.533-28.259,0-45.679-13.349-48.986-39.25h131.16a5.174,5.174,0,0,0,5.143-4.592,125.229,125.229,0,0,0,.7-13.563c0-26.82-8.817-50.976-24.8-68.06-16.778-17.941-40.291-27.555-67.937-27.555" transform="translate(255.936 -141.734)" fill="#5f469c"/>
    <path id="Path_33" data-name="Path 33" d="M324.845,477.216l-.551-.551-.429-.429a108.382,108.382,0,0,1-21.248-32.331,5.143,5.143,0,0,0-4.746-3.061H199.2L319.885,286.416a5.144,5.144,0,0,0,1.1-3.062V253.105a5.174,5.174,0,0,0-5.174-5.174H250.693v-43.2a2.572,2.572,0,0,0-2.6-2.572H208.075a2.572,2.572,0,0,0-2.6,2.572V247.9H141.7a5.174,5.174,0,0,0-5.235,5.2v34.872a5.174,5.174,0,0,0,5.174,5.174H252.407L132.422,446.233a5.235,5.235,0,0,0-1.1,3.062v31.6a5.174,5.174,0,0,0,5.174,5.174h68.948v43.2a2.6,2.6,0,0,0,2.6,2.6H248.06a2.572,2.572,0,0,0,2.572-2.6V486.095h70.417a5.174,5.174,0,0,0,3.7-8.818" transform="translate(-131.34 -202.16)" fill="#5f469c"/>
  </g>
</svg>
